<svg xmlns="http://www.w3.org/2000/svg" viewBox="0 0 900 720" width="900" height="720" font-family="ui-sans-serif,system-ui,-apple-system,Segoe UI,Roboto,sans-serif" role="img" aria-label="Tahir Cengiz — Cloud &amp; AI Infrastructure Architect. Terminal boot log and an interconnected graph of expertise across cloud, Microsoft infrastructure, AI/GPU, virtualization, ops and home automation.">
  <defs>
    <linearGradient id="bg" x1="0" y1="0" x2="1" y2="1"><stop offset="0" stop-color="#0a0e17"/><stop offset="0.5" stop-color="#0b1120"/><stop offset="1" stop-color="#090d18"/></linearGradient>
    <radialGradient id="glow" cx="0.5" cy="0.5" r="0.5"><stop offset="0" stop-color="#8b5cf6" stop-opacity="0.42"/><stop offset="1" stop-color="#8b5cf6" stop-opacity="0"/></radialGradient>
    <filter id="soft" x="-50%" y="-50%" width="200%" height="200%"><feGaussianBlur stdDeviation="1.5"/></filter>
    <style>
      .e{stroke-width:0.7;stroke-opacity:0.24;stroke-dasharray:4 6;animation:flow 3s linear infinite}
      .n{animation:pulse 2.6s ease-in-out infinite;transform-box:fill-box;transform-origin:center;opacity:.85}
      .n.hub{filter:url(#soft)}
      .cur{animation:blink 1.05s steps(1) infinite}
      text{dominant-baseline:alphabetic}
      .tl{font-family:ui-monospace,'SF Mono',Menlo,Consolas,monospace;font-size:13px}
      @keyframes flow{to{stroke-dashoffset:-20}}
      @keyframes pulse{0%,100%{opacity:.45}50%{opacity:1}}
      @keyframes blink{50%{opacity:0}}
      @media (prefers-reduced-motion:reduce){.e,.n,.cur{animation:none}}
    </style>
  </defs>
  <rect width="900" height="720" rx="16" fill="url(#bg)"/>
  <rect width="900" height="720" rx="16" fill="none" stroke="#1e293b" stroke-opacity="0.6"/>
  <g><line class="e" x1="206.1" y1="129.6" x2="240.5" y2="78.2" stroke="#8b5cf6" style="animation-delay:0.28s"/><line class="e" x1="206.1" y1="129.6" x2="222.3" y2="203.5" stroke="#8b5cf6" style="animation-delay:2.58s"/><line class="e" x1="206.1" y1="129.6" x2="254.7" y2="189.5" stroke="#8b5cf6" style="animation-delay:0.31s"/><line class="e" x1="642.3" y1="72.5" x2="646.2" y2="121.3" stroke="#22d3ee" style="animation-delay:0.99s"/><line class="e" x1="642.3" y1="72.5" x2="694.3" y2="63.7" stroke="#22d3ee" style="animation-delay:2.98s"/><line class="e" x1="513.8" y1="213.0" x2="602.7" y2="173.1" stroke="#22d3ee" style="animation-delay:0.63s"/><line class="e" x1="513.8" y1="213.0" x2="602.5" y2="170.9" stroke="#22d3ee" style="animation-delay:2.98s"/><line class="e" x1="513.8" y1="213.0" x2="609.9" y2="153.7" stroke="#22d3ee" style="animation-delay:2.05s"/><line class="e" x1="254.7" y1="189.5" x2="222.3" y2="203.5" stroke="#34d399" style="animation-delay:1.00s"/><line class="e" x1="254.7" y1="189.5" x2="305.1" y2="148.4" stroke="#34d399" style="animation-delay:2.85s"/><line class="e" x1="332.5" y1="157.1" x2="305.1" y2="148.4" stroke="#8b5cf6" style="animation-delay:0.32s"/><line class="e" x1="332.5" y1="157.1" x2="352.2" y2="82.6" stroke="#8b5cf6" style="animation-delay:0.80s"/><line class="e" x1="332.5" y1="157.1" x2="338.3" y2="73.6" stroke="#8b5cf6" style="animation-delay:1.51s"/><line class="e" x1="522.8" y1="70.3" x2="519.7" y2="51.1" stroke="#818cf8" style="animation-delay:1.47s"/><line class="e" x1="522.8" y1="70.3" x2="542.5" y2="60.5" stroke="#818cf8" style="animation-delay:0.75s"/><line class="e" x1="522.8" y1="70.3" x2="547.2" y2="92.0" stroke="#818cf8" style="animation-delay:1.94s"/><line class="e" x1="585.0" y1="30.2" x2="576.0" y2="29.8" stroke="#818cf8" style="animation-delay:2.22s"/><line class="e" x1="585.0" y1="30.2" x2="609.1" y2="23.1" stroke="#818cf8" style="animation-delay:2.15s"/><line class="e" x1="694.3" y1="63.7" x2="727.6" y2="78.6" stroke="#8b5cf6" style="animation-delay:2.92s"/><line class="e" x1="694.3" y1="63.7" x2="736.7" y2="55.9" stroke="#8b5cf6" style="animation-delay:0.39s"/><line class="e" x1="820.0" y1="18.1" x2="833.6" y2="39.8" stroke="#818cf8" style="animation-delay:1.26s"/><line class="e" x1="820.0" y1="18.1" x2="736.7" y2="55.9" stroke="#818cf8" style="animation-delay:2.78s"/><line class="e" x1="368.5" y1="59.0" x2="371.2" y2="43.6" stroke="#22d3ee" style="animation-delay:2.16s"/><line class="e" x1="368.5" y1="59.0" x2="373.6" y2="33.3" stroke="#22d3ee" style="animation-delay:2.98s"/><line class="e" x1="373.6" y1="33.3" x2="371.2" y2="43.6" stroke="#a78bfa" style="animation-delay:2.04s"/><line class="e" x1="373.6" y1="33.3" x2="349.9" y2="29.2" stroke="#a78bfa" style="animation-delay:0.37s"/><line class="e" x1="602.7" y1="173.1" x2="602.5" y2="170.9" stroke="#8b5cf6" style="animation-delay:0.05s"/><line class="e" x1="602.7" y1="173.1" x2="621.7" y2="174.2" stroke="#8b5cf6" style="animation-delay:0.62s"/><line class="e" x1="602.7" y1="173.1" x2="609.9" y2="153.7" stroke="#8b5cf6" style="animation-delay:2.96s"/><line class="e" x1="609.1" y1="23.1" x2="576.0" y2="29.8" stroke="#8b5cf6" style="animation-delay:2.81s"/><line class="e" x1="349.9" y1="29.2" x2="371.2" y2="43.6" stroke="#22d3ee" style="animation-delay:0.73s"/><line class="e" x1="736.7" y1="55.9" x2="727.6" y2="78.6" stroke="#8b5cf6" style="animation-delay:1.84s"/><line class="e" x1="646.2" y1="121.3" x2="663.7" y2="144.5" stroke="#8b5cf6" style="animation-delay:2.83s"/><line class="e" x1="646.2" y1="121.3" x2="615.4" y2="153.5" stroke="#8b5cf6" style="animation-delay:1.26s"/><line class="e" x1="615.4" y1="153.5" x2="609.9" y2="153.7" stroke="#34d399" style="animation-delay:2.72s"/><line class="e" x1="615.4" y1="153.5" x2="621.7" y2="174.2" stroke="#34d399" style="animation-delay:1.55s"/><line class="e" x1="615.4" y1="153.5" x2="602.5" y2="170.9" stroke="#34d399" style="animation-delay:2.22s"/><line class="e" x1="169.1" y1="208.9" x2="222.3" y2="203.5" stroke="#818cf8" style="animation-delay:0.42s"/><line class="e" x1="169.1" y1="208.9" x2="206.1" y2="129.6" stroke="#818cf8" style="animation-delay:0.46s"/><line class="e" x1="169.1" y1="208.9" x2="254.7" y2="189.5" stroke="#818cf8" style="animation-delay:1.85s"/><line class="e" x1="240.5" y1="78.2" x2="326.2" y2="40.1" stroke="#8b5cf6" style="animation-delay:1.03s"/><line class="e" x1="824.1" y1="168.0" x2="827.2" y2="158.5" stroke="#8b5cf6" style="animation-delay:2.57s"/><line class="e" x1="824.1" y1="168.0" x2="860.8" y2="161.0" stroke="#8b5cf6" style="animation-delay:2.58s"/><line class="e" x1="147.1" y1="38.1" x2="94.8" y2="94.7" stroke="#818cf8" style="animation-delay:0.11s"/><line class="e" x1="147.1" y1="38.1" x2="100.1" y2="126.1" stroke="#818cf8" style="animation-delay:0.90s"/><line class="e" x1="147.1" y1="38.1" x2="240.5" y2="78.2" stroke="#818cf8" style="animation-delay:2.23s"/><line class="e" x1="431.9" y1="73.5" x2="421.2" y2="88.2" stroke="#a78bfa" style="animation-delay:1.50s"/><line class="e" x1="431.9" y1="73.5" x2="368.5" y2="59.0" stroke="#a78bfa" style="animation-delay:1.62s"/><line class="e" x1="431.9" y1="73.5" x2="371.2" y2="43.6" stroke="#a78bfa" style="animation-delay:2.66s"/><line class="e" x1="623.9" y1="178.8" x2="621.7" y2="174.2" stroke="#8b5cf6" style="animation-delay:1.03s"/><line class="e" x1="623.9" y1="178.8" x2="602.7" y2="173.1" stroke="#8b5cf6" style="animation-delay:0.44s"/><line class="e" x1="519.7" y1="51.1" x2="542.5" y2="60.5" stroke="#34d399" style="animation-delay:0.66s"/><line class="e" x1="663.7" y1="144.5" x2="615.4" y2="153.5" stroke="#34d399" style="animation-delay:1.86s"/><line class="e" x1="663.7" y1="144.5" x2="621.7" y2="174.2" stroke="#34d399" style="animation-delay:2.42s"/><line class="e" x1="338.3" y1="73.6" x2="352.2" y2="82.6" stroke="#8b5cf6" style="animation-delay:0.36s"/><line class="e" x1="338.3" y1="73.6" x2="368.5" y2="59.0" stroke="#8b5cf6" style="animation-delay:1.87s"/><line class="e" x1="338.3" y1="73.6" x2="326.2" y2="40.1" stroke="#8b5cf6" style="animation-delay:1.93s"/><line class="e" x1="326.2" y1="40.1" x2="349.9" y2="29.2" stroke="#22d3ee" style="animation-delay:1.80s"/><line class="e" x1="602.5" y1="170.9" x2="609.9" y2="153.7" stroke="#34d399" style="animation-delay:1.75s"/><line class="e" x1="602.5" y1="170.9" x2="621.7" y2="174.2" stroke="#34d399" style="animation-delay:0.78s"/><line class="e" x1="100.1" y1="126.1" x2="94.8" y2="94.7" stroke="#34d399" style="animation-delay:1.79s"/><line class="e" x1="100.1" y1="126.1" x2="206.1" y2="129.6" stroke="#34d399" style="animation-delay:2.55s"/><line class="e" x1="833.6" y1="39.8" x2="736.7" y2="55.9" stroke="#22d3ee" style="animation-delay:0.36s"/><line class="e" x1="833.6" y1="39.8" x2="727.6" y2="78.6" stroke="#22d3ee" style="animation-delay:0.64s"/><line class="e" x1="827.2" y1="158.5" x2="860.8" y2="161.0" stroke="#8b5cf6" style="animation-delay:2.09s"/><line class="e" x1="352.2" y1="82.6" x2="368.5" y2="59.0" stroke="#a78bfa" style="animation-delay:1.08s"/><line class="e" x1="352.2" y1="82.6" x2="371.2" y2="43.6" stroke="#a78bfa" style="animation-delay:1.66s"/><line class="e" x1="576.0" y1="29.8" x2="542.5" y2="60.5" stroke="#818cf8" style="animation-delay:1.74s"/><line class="e" x1="860.8" y1="161.0" x2="833.6" y2="39.8" stroke="#34d399" style="animation-delay:0.19s"/><line class="e" x1="547.2" y1="92.0" x2="542.5" y2="60.5" stroke="#34d399" style="animation-delay:0.91s"/><line class="e" x1="547.2" y1="92.0" x2="519.7" y2="51.1" stroke="#34d399" style="animation-delay:1.29s"/><line class="e" x1="421.2" y1="88.2" x2="368.5" y2="59.0" stroke="#34d399" style="animation-delay:1.81s"/><line class="e" x1="421.2" y1="88.2" x2="371.2" y2="43.6" stroke="#34d399" style="animation-delay:0.37s"/><circle class="n" cx="206.1" cy="129.6" r="2.5" fill="#8b5cf6" style="animation-delay:3.13s;animation-duration:4.79s"/><circle class="n" cx="642.3" cy="72.5" r="3.4" fill="#22d3ee" style="animation-delay:1.62s;animation-duration:2.85s"/><circle class="n hub" cx="513.8" cy="213.0" r="2.3" fill="#22d3ee" style="animation-delay:1.47s;animation-duration:3.56s"/><circle class="n" cx="254.7" cy="189.5" r="1.5" fill="#34d399" style="animation-delay:0.84s;animation-duration:4.65s"/><circle class="n" cx="332.5" cy="157.1" r="1.5" fill="#8b5cf6" style="animation-delay:1.70s;animation-duration:4.77s"/><circle class="n" cx="522.8" cy="70.3" r="3.4" fill="#818cf8" style="animation-delay:2.48s;animation-duration:2.66s"/><circle class="n" cx="585.0" cy="30.2" r="2.5" fill="#818cf8" style="animation-delay:1.60s;animation-duration:4.83s"/><circle class="n" cx="694.3" cy="63.7" r="1.9" fill="#8b5cf6" style="animation-delay:1.76s;animation-duration:2.84s"/><circle class="n" cx="820.0" cy="18.1" r="2.1" fill="#818cf8" style="animation-delay:1.58s;animation-duration:3.23s"/><circle class="n" cx="368.5" cy="59.0" r="3.0" fill="#22d3ee" style="animation-delay:0.50s;animation-duration:2.97s"/><circle class="n hub" cx="373.6" cy="33.3" r="3.1" fill="#a78bfa" style="animation-delay:3.58s;animation-duration:4.45s"/><circle class="n" cx="602.7" cy="173.1" r="1.3" fill="#8b5cf6" style="animation-delay:0.83s;animation-duration:4.92s"/><circle class="n" cx="609.1" cy="23.1" r="1.5" fill="#8b5cf6" style="animation-delay:2.92s;animation-duration:4.80s"/><circle class="n" cx="371.2" cy="43.6" r="3.2" fill="#818cf8" style="animation-delay:3.86s;animation-duration:3.61s"/><circle class="n" cx="349.9" cy="29.2" r="2.6" fill="#22d3ee" style="animation-delay:2.83s;animation-duration:4.94s"/><circle class="n" cx="736.7" cy="55.9" r="3.2" fill="#8b5cf6" style="animation-delay:2.32s;animation-duration:3.88s"/><circle class="n" cx="646.2" cy="121.3" r="3.1" fill="#8b5cf6" style="animation-delay:2.31s;animation-duration:3.72s"/><circle class="n" cx="615.4" cy="153.5" r="2.3" fill="#34d399" style="animation-delay:0.87s;animation-duration:3.78s"/><circle class="n" cx="169.1" cy="208.9" r="1.7" fill="#818cf8" style="animation-delay:1.25s;animation-duration:3.37s"/><circle class="n" cx="240.5" cy="78.2" r="2.1" fill="#8b5cf6" style="animation-delay:2.84s;animation-duration:3.03s"/><circle class="n hub" cx="222.3" cy="203.5" r="1.6" fill="#818cf8" style="animation-delay:1.53s;animation-duration:4.28s"/><circle class="n hub" cx="824.1" cy="168.0" r="2.5" fill="#8b5cf6" style="animation-delay:0.91s;animation-duration:3.86s"/><circle class="n" cx="147.1" cy="38.1" r="2.8" fill="#818cf8" style="animation-delay:3.41s;animation-duration:4.08s"/><circle class="n" cx="431.9" cy="73.5" r="1.6" fill="#a78bfa" style="animation-delay:2.37s;animation-duration:3.47s"/><circle class="n" cx="623.9" cy="178.8" r="2.7" fill="#8b5cf6" style="animation-delay:0.63s;animation-duration:3.12s"/><circle class="n" cx="519.7" cy="51.1" r="1.6" fill="#34d399" style="animation-delay:0.80s;animation-duration:3.15s"/><circle class="n" cx="663.7" cy="144.5" r="2.6" fill="#34d399" style="animation-delay:1.94s;animation-duration:3.36s"/><circle class="n" cx="338.3" cy="73.6" r="3.0" fill="#8b5cf6" style="animation-delay:1.71s;animation-duration:3.84s"/><circle class="n hub" cx="542.5" cy="60.5" r="3.0" fill="#818cf8" style="animation-delay:3.25s;animation-duration:4.41s"/><circle class="n hub" cx="326.2" cy="40.1" r="1.5" fill="#22d3ee" style="animation-delay:1.35s;animation-duration:4.88s"/><circle class="n" cx="602.5" cy="170.9" r="3.1" fill="#34d399" style="animation-delay:1.20s;animation-duration:4.42s"/><circle class="n" cx="305.1" cy="148.4" r="2.8" fill="#818cf8" style="animation-delay:2.82s;animation-duration:5.00s"/><circle class="n" cx="621.7" cy="174.2" r="2.2" fill="#22d3ee" style="animation-delay:1.63s;animation-duration:3.71s"/><circle class="n hub" cx="727.6" cy="78.6" r="2.7" fill="#818cf8" style="animation-delay:1.98s;animation-duration:3.57s"/><circle class="n" cx="100.1" cy="126.1" r="3.2" fill="#34d399" style="animation-delay:0.80s;animation-duration:2.75s"/><circle class="n hub" cx="833.6" cy="39.8" r="2.0" fill="#22d3ee" style="animation-delay:2.24s;animation-duration:3.88s"/><circle class="n" cx="827.2" cy="158.5" r="2.8" fill="#8b5cf6" style="animation-delay:0.85s;animation-duration:3.14s"/><circle class="n" cx="352.2" cy="82.6" r="1.9" fill="#a78bfa" style="animation-delay:0.32s;animation-duration:3.13s"/><circle class="n" cx="576.0" cy="29.8" r="2.3" fill="#818cf8" style="animation-delay:2.21s;animation-duration:3.51s"/><circle class="n" cx="609.9" cy="153.7" r="1.8" fill="#22d3ee" style="animation-delay:2.94s;animation-duration:4.71s"/><circle class="n" cx="94.8" cy="94.7" r="1.3" fill="#818cf8" style="animation-delay:2.30s;animation-duration:4.54s"/><circle class="n" cx="860.8" cy="161.0" r="1.7" fill="#34d399" style="animation-delay:0.97s;animation-duration:3.32s"/><circle class="n hub" cx="547.2" cy="92.0" r="2.9" fill="#34d399" style="animation-delay:3.64s;animation-duration:3.42s"/><circle class="n" cx="421.2" cy="88.2" r="1.5" fill="#34d399" style="animation-delay:1.51s;animation-duration:4.95s"/><circle r="1.6" fill="#e9d5ff"><animateMotion dur="1.7s" repeatCount="indefinite" path="M206.1,129.6 L240.5,78.2"/><animate attributeName="opacity" dur="1.7s" repeatCount="indefinite" values="0;1;0"/></circle><circle r="1.6" fill="#e9d5ff"><animateMotion dur="2.4s" repeatCount="indefinite" path="M254.7,189.5 L222.3,203.5"/><animate attributeName="opacity" dur="2.4s" repeatCount="indefinite" values="0;1;0"/></circle><circle r="1.6" fill="#e9d5ff"><animateMotion dur="3.1s" repeatCount="indefinite" path="M585.0,30.2 L576.0,29.8"/><animate attributeName="opacity" dur="3.1s" repeatCount="indefinite" values="0;1;0"/></circle><circle r="1.6" fill="#e9d5ff"><animateMotion dur="1.7s" repeatCount="indefinite" path="M373.6,33.3 L371.2,43.6"/><animate attributeName="opacity" dur="1.7s" repeatCount="indefinite" values="0;1;0"/></circle><circle r="1.6" fill="#e9d5ff"><animateMotion dur="2.4s" repeatCount="indefinite" path="M646.2,121.3 L663.7,144.5"/><animate attributeName="opacity" dur="2.4s" repeatCount="indefinite" values="0;1;0"/></circle><circle r="1.6" fill="#e9d5ff"><animateMotion dur="3.1s" repeatCount="indefinite" path="M240.5,78.2 L326.2,40.1"/><animate attributeName="opacity" dur="3.1s" repeatCount="indefinite" values="0;1;0"/></circle></g>
  <ellipse cx="710" cy="78" rx="150" ry="118" fill="url(#glow)" opacity="0.5"/>
  <g font-family="ui-monospace,'SF Mono',Menlo,Consolas,monospace">
    <rect x="26" y="40" width="452" height="150" rx="10" fill="#0d1426" fill-opacity="0.82" stroke="#293449" stroke-opacity="0.9"/>
    <rect x="26" y="40" width="452" height="26" rx="10" fill="#111a2e" fill-opacity="0.9"/>
    <circle cx="42" cy="53" r="4" fill="#f87171"/><circle cx="58" cy="53" r="4" fill="#fbbf24"/><circle cx="74" cy="53" r="4" fill="#34d399"/>
    <text x="252" y="57" text-anchor="middle" font-size="11" fill="#5b6b85">tahir.ai — zsh</text>
    <text class="tl" x="44" y="84"><tspan fill="#34d399">tahir@ai-infra</tspan><tspan fill="#64748b">:~$ </tspan><tspan fill="#e2e8f0">./whoami --gpu</tspan></text><text class="tl" x="44" y="128"><tspan fill="#64748b">▸ </tspan><tspan fill="#8b5cf6">role  </tspan><tspan fill="#cbd5e1">  Cloud &amp; AI Infrastructure Architect</tspan></text><text class="tl" x="44" y="150"><tspan fill="#64748b">▸ </tspan><tspan fill="#8b5cf6">focus </tspan><tspan fill="#cbd5e1">  GPU PaaS · NVIDIA AI Infra &amp; Ops</tspan></text><text class="tl" x="44" y="172"><tspan fill="#64748b">▸ </tspan><tspan fill="#8b5cf6">based </tspan><tspan fill="#cbd5e1">  İstanbul · KoçSistem</tspan></text><g class="tl"><circle cx="48" cy="190" r="3.2" fill="#34d399"><animate attributeName="opacity" values="1;.3;1" dur="1.4s" repeatCount="indefinite"/></circle><text x="60" y="194"><tspan fill="#94a3b8">status&#160;&#160;&#160;</tspan><tspan fill="#34d399">● online</tspan><tspan fill="#64748b"> · building GPU PaaS</tspan></text></g>
    <rect class="cur" x="44" y="203" width="8" height="14" fill="#8b5cf6"/>
  </g>
  <line x1="34" y1="276" x2="866" y2="276" stroke="#1e293b" stroke-opacity="0.8"/>
  <text x="34" y="266" font-size="12" letter-spacing="2.5" fill="#5b6b85">AREAS OF EXPERTISE — interconnected</text>
  <g><line class="e" x1="668.7" y1="497.0" x2="669.7" y2="429.4" stroke="#38bdf8" style="animation-delay:0.74s"/><line class="e" x1="577.9" y1="500.6" x2="669.7" y2="429.4" stroke="#38bdf8" style="animation-delay:2.36s"/><line class="e" x1="698.2" y1="351.1" x2="669.7" y2="429.4" stroke="#38bdf8" style="animation-delay:0.18s"/><line class="e" x1="751.2" y1="423.7" x2="669.7" y2="429.4" stroke="#38bdf8" style="animation-delay:1.65s"/><line class="e" x1="610.1" y1="393.9" x2="669.7" y2="429.4" stroke="#38bdf8" style="animation-delay:2.18s"/><line class="e" x1="566.5" y1="621.5" x2="618.1" y2="657.6" stroke="#60a5fa" style="animation-delay:2.76s"/><line class="e" x1="650.1" y1="577.1" x2="618.1" y2="657.6" stroke="#60a5fa" style="animation-delay:0.56s"/><line class="e" x1="561.2" y1="684.0" x2="618.1" y2="657.6" stroke="#60a5fa" style="animation-delay:2.56s"/><line class="e" x1="604.7" y1="604.8" x2="618.1" y2="657.6" stroke="#60a5fa" style="animation-delay:1.79s"/><line class="e" x1="507.7" y1="589.7" x2="618.1" y2="657.6" stroke="#60a5fa" style="animation-delay:2.68s"/><line class="e" x1="419.8" y1="545.7" x2="368.8" y2="654.1" stroke="#a78bfa" style="animation-delay:2.31s"/><line class="e" x1="437.8" y1="626.3" x2="368.8" y2="654.1" stroke="#a78bfa" style="animation-delay:1.80s"/><line class="e" x1="344.8" y1="604.9" x2="368.8" y2="654.1" stroke="#a78bfa" style="animation-delay:0.97s"/><line class="e" x1="287.2" y1="684.0" x2="368.8" y2="654.1" stroke="#a78bfa" style="animation-delay:0.87s"/><line class="e" x1="416.1" y1="684.0" x2="368.8" y2="654.1" stroke="#a78bfa" style="animation-delay:2.99s"/><line class="e" x1="279.8" y1="523.6" x2="280.1" y2="579.3" stroke="#34d399" style="animation-delay:1.88s"/><line class="e" x1="223.8" y1="614.5" x2="280.1" y2="579.3" stroke="#34d399" style="animation-delay:2.40s"/><line class="e" x1="385.3" y1="517.3" x2="280.1" y2="579.3" stroke="#34d399" style="animation-delay:2.36s"/><line class="e" x1="323.8" y1="531.5" x2="280.1" y2="579.3" stroke="#34d399" style="animation-delay:1.40s"/><line class="e" x1="356.9" y1="399.4" x2="277.6" y2="381.6" stroke="#fbbf24" style="animation-delay:2.86s"/><line class="e" x1="265.8" y1="444.1" x2="277.6" y2="381.6" stroke="#fbbf24" style="animation-delay:0.30s"/><line class="e" x1="344.3" y1="451.5" x2="277.6" y2="381.6" stroke="#fbbf24" style="animation-delay:2.76s"/><line class="e" x1="212.8" y1="438.9" x2="277.6" y2="381.6" stroke="#fbbf24" style="animation-delay:1.67s"/><line class="e" x1="408.9" y1="330.0" x2="483.8" y2="330.0" stroke="#f472b6" style="animation-delay:0.40s"/><line class="e" x1="460.2" y1="389.6" x2="483.8" y2="330.0" stroke="#f472b6" style="animation-delay:0.11s"/><line class="e" x1="554.4" y1="330.0" x2="483.8" y2="330.0" stroke="#f472b6" style="animation-delay:2.93s"/><line class="e" x1="344.8" y1="604.9" x2="279.8" y2="523.6" stroke="#a78bfa" style="animation-delay:2.30s"/><line class="e" x1="419.8" y1="545.7" x2="279.8" y2="523.6" stroke="#a78bfa" style="animation-delay:0.22s"/><line class="e" x1="287.2" y1="684.0" x2="223.8" y2="614.5" stroke="#a78bfa" style="animation-delay:2.35s"/><line class="e" x1="416.1" y1="684.0" x2="344.8" y2="604.9" stroke="#a78bfa" style="animation-delay:1.29s"/><line class="e" x1="437.8" y1="626.3" x2="419.8" y2="545.7" stroke="#a78bfa" style="animation-delay:0.63s"/><line class="e" x1="279.8" y1="523.6" x2="223.8" y2="614.5" stroke="#34d399" style="animation-delay:2.54s"/><line class="e" x1="385.3" y1="517.3" x2="323.8" y2="531.5" stroke="#34d399" style="animation-delay:1.46s"/><line class="e" x1="212.8" y1="438.9" x2="279.8" y2="523.6" stroke="#fbbf24" style="animation-delay:1.19s"/><line class="e" x1="385.3" y1="517.3" x2="507.7" y2="589.7" stroke="#34d399" style="animation-delay:2.38s"/><line class="e" x1="577.9" y1="500.6" x2="650.1" y2="577.1" stroke="#38bdf8" style="animation-delay:2.73s"/><line class="e" x1="650.1" y1="577.1" x2="566.5" y2="621.5" stroke="#60a5fa" style="animation-delay:1.63s"/><line class="e" x1="507.7" y1="589.7" x2="566.5" y2="621.5" stroke="#60a5fa" style="animation-delay:2.23s"/><line class="e" x1="561.2" y1="684.0" x2="604.7" y2="604.8" stroke="#60a5fa" style="animation-delay:1.97s"/><line class="e" x1="604.7" y1="604.8" x2="650.1" y2="577.1" stroke="#60a5fa" style="animation-delay:2.19s"/><line class="e" x1="577.9" y1="500.6" x2="668.7" y2="497.0" stroke="#38bdf8" style="animation-delay:1.75s"/><line class="e" x1="265.8" y1="444.1" x2="344.3" y2="451.5" stroke="#fbbf24" style="animation-delay:2.66s"/><line class="e" x1="265.8" y1="444.1" x2="279.8" y2="523.6" stroke="#fbbf24" style="animation-delay:2.67s"/><line class="e" x1="356.9" y1="399.4" x2="385.3" y2="517.3" stroke="#fbbf24" style="animation-delay:1.84s"/><line class="e" x1="344.3" y1="451.5" x2="419.8" y2="545.7" stroke="#fbbf24" style="animation-delay:2.04s"/><line class="e" x1="408.9" y1="330.0" x2="460.2" y2="389.6" stroke="#f472b6" style="animation-delay:1.44s"/><line class="e" x1="408.9" y1="330.0" x2="356.9" y2="399.4" stroke="#f472b6" style="animation-delay:2.33s"/><line class="e" x1="577.9" y1="500.6" x2="419.8" y2="545.7" stroke="#38bdf8" style="animation-delay:1.80s"/><circle r="1.5" fill="#e9d5ff"><animateMotion dur="3.2s" repeatCount="indefinite" path="M668.7,497.0 L669.7,429.4"/><animate attributeName="opacity" dur="3.2s" repeatCount="indefinite" values="0;.9;0"/></circle><circle r="1.5" fill="#e9d5ff"><animateMotion dur="3.8s" repeatCount="indefinite" path="M751.2,423.7 L669.7,429.4"/><animate attributeName="opacity" dur="3.8s" repeatCount="indefinite" values="0;.9;0"/></circle><circle r="1.5" fill="#e9d5ff"><animateMotion dur="2.7s" repeatCount="indefinite" path="M650.1,577.1 L618.1,657.6"/><animate attributeName="opacity" dur="2.7s" repeatCount="indefinite" values="0;.9;0"/></circle><circle r="1.5" fill="#e9d5ff"><animateMotion dur="3.1s" repeatCount="indefinite" path="M507.7,589.7 L618.1,657.6"/><animate attributeName="opacity" dur="3.1s" repeatCount="indefinite" values="0;.9;0"/></circle><circle r="1.5" fill="#e9d5ff"><animateMotion dur="3.1s" repeatCount="indefinite" path="M344.8,604.9 L368.8,654.1"/><animate attributeName="opacity" dur="3.1s" repeatCount="indefinite" values="0;.9;0"/></circle><circle r="1.5" fill="#e9d5ff"><animateMotion dur="2.4s" repeatCount="indefinite" path="M279.8,523.6 L280.1,579.3"/><animate attributeName="opacity" dur="2.4s" repeatCount="indefinite" values="0;.9;0"/></circle><circle r="1.5" fill="#e9d5ff"><animateMotion dur="2.4s" repeatCount="indefinite" path="M323.8,531.5 L280.1,579.3"/><animate attributeName="opacity" dur="2.4s" repeatCount="indefinite" values="0;.9;0"/></circle><circle r="1.5" fill="#e9d5ff"><animateMotion dur="2.4s" repeatCount="indefinite" path="M344.3,451.5 L277.6,381.6"/><animate attributeName="opacity" dur="2.4s" repeatCount="indefinite" values="0;.9;0"/></circle><circle r="1.5" fill="#e9d5ff"><animateMotion dur="2.7s" repeatCount="indefinite" path="M460.2,389.6 L483.8,330.0"/><animate attributeName="opacity" dur="2.7s" repeatCount="indefinite" values="0;.9;0"/></circle><circle r="1.5" fill="#e9d5ff"><animateMotion dur="3.4s" repeatCount="indefinite" path="M419.8,545.7 L279.8,523.6"/><animate attributeName="opacity" dur="3.4s" repeatCount="indefinite" values="0;.9;0"/></circle><circle r="1.5" fill="#e9d5ff"><animateMotion dur="3.3s" repeatCount="indefinite" path="M437.8,626.3 L419.8,545.7"/><animate attributeName="opacity" dur="3.3s" repeatCount="indefinite" values="0;.9;0"/></circle><circle r="1.5" fill="#e9d5ff"><animateMotion dur="2.2s" repeatCount="indefinite" path="M212.8,438.9 L279.8,523.6"/><animate attributeName="opacity" dur="2.2s" repeatCount="indefinite" values="0;.9;0"/></circle><circle r="1.5" fill="#e9d5ff"><animateMotion dur="3.4s" repeatCount="indefinite" path="M650.1,577.1 L566.5,621.5"/><animate attributeName="opacity" dur="3.4s" repeatCount="indefinite" values="0;.9;0"/></circle><circle r="1.5" fill="#e9d5ff"><animateMotion dur="3.0s" repeatCount="indefinite" path="M604.7,604.8 L650.1,577.1"/><animate attributeName="opacity" dur="3.0s" repeatCount="indefinite" values="0;.9;0"/></circle><circle r="1.5" fill="#e9d5ff"><animateMotion dur="2.1s" repeatCount="indefinite" path="M265.8,444.1 L279.8,523.6"/><animate attributeName="opacity" dur="2.1s" repeatCount="indefinite" values="0;.9;0"/></circle><circle r="1.5" fill="#e9d5ff"><animateMotion dur="2.1s" repeatCount="indefinite" path="M408.9,330.0 L460.2,389.6"/><animate attributeName="opacity" dur="2.1s" repeatCount="indefinite" values="0;.9;0"/></circle><circle class="n hub" cx="669.7" cy="429.4" r="5" fill="#38bdf8" style="animation-delay:0.33s;animation-duration:4.20s"/><circle class="n hub" cx="618.1" cy="657.6" r="5" fill="#60a5fa" style="animation-delay:1.67s;animation-duration:2.28s"/><circle class="n hub" cx="368.8" cy="654.1" r="5" fill="#a78bfa" style="animation-delay:2.50s;animation-duration:2.88s"/><circle class="n hub" cx="280.1" cy="579.3" r="5" fill="#34d399" style="animation-delay:0.32s;animation-duration:2.44s"/><circle class="n hub" cx="277.6" cy="381.6" r="5" fill="#fbbf24" style="animation-delay:0.27s;animation-duration:2.63s"/><circle class="n hub" cx="483.8" cy="330.0" r="5" fill="#f472b6" style="animation-delay:1.83s;animation-duration:3.49s"/><circle class="n" cx="668.7" cy="497.0" r="3" fill="#38bdf8" style="animation-delay:2.61s;animation-duration:3.53s"/><circle class="n" cx="577.9" cy="500.6" r="3" fill="#38bdf8" style="animation-delay:2.96s;animation-duration:3.69s"/><circle class="n" cx="698.2" cy="351.1" r="3" fill="#38bdf8" style="animation-delay:0.40s;animation-duration:4.00s"/><circle class="n" cx="751.2" cy="423.7" r="3" fill="#38bdf8" style="animation-delay:2.34s;animation-duration:2.88s"/><circle class="n" cx="610.1" cy="393.9" r="3" fill="#38bdf8" style="animation-delay:2.64s;animation-duration:2.87s"/><circle class="n" cx="566.5" cy="621.5" r="3" fill="#60a5fa" style="animation-delay:1.29s;animation-duration:3.00s"/><circle class="n" cx="650.1" cy="577.1" r="3" fill="#60a5fa" style="animation-delay:2.92s;animation-duration:2.97s"/><circle class="n" cx="561.2" cy="684.0" r="3" fill="#60a5fa" style="animation-delay:0.93s;animation-duration:3.59s"/><circle class="n" cx="604.7" cy="604.8" r="3" fill="#60a5fa" style="animation-delay:2.87s;animation-duration:2.33s"/><circle class="n" cx="507.7" cy="589.7" r="3" fill="#60a5fa" style="animation-delay:0.61s;animation-duration:2.95s"/><circle class="n" cx="419.8" cy="545.7" r="3" fill="#a78bfa" style="animation-delay:1.98s;animation-duration:3.69s"/><circle class="n" cx="437.8" cy="626.3" r="3" fill="#a78bfa" style="animation-delay:0.21s;animation-duration:3.83s"/><circle class="n" cx="344.8" cy="604.9" r="3" fill="#a78bfa" style="animation-delay:2.25s;animation-duration:3.36s"/><circle class="n" cx="287.2" cy="684.0" r="3" fill="#a78bfa" style="animation-delay:2.82s;animation-duration:3.09s"/><circle class="n" cx="416.1" cy="684.0" r="3" fill="#a78bfa" style="animation-delay:1.53s;animation-duration:2.72s"/><circle class="n" cx="279.8" cy="523.6" r="3" fill="#34d399" style="animation-delay:2.60s;animation-duration:2.95s"/><circle class="n" cx="223.8" cy="614.5" r="3" fill="#34d399" style="animation-delay:0.90s;animation-duration:4.19s"/><circle class="n" cx="385.3" cy="517.3" r="3" fill="#34d399" style="animation-delay:2.71s;animation-duration:3.74s"/><circle class="n" cx="323.8" cy="531.5" r="3" fill="#34d399" style="animation-delay:0.71s;animation-duration:2.62s"/><circle class="n" cx="356.9" cy="399.4" r="3" fill="#fbbf24" style="animation-delay:1.53s;animation-duration:3.60s"/><circle class="n" cx="265.8" cy="444.1" r="3" fill="#fbbf24" style="animation-delay:0.70s;animation-duration:3.05s"/><circle class="n" cx="344.3" cy="451.5" r="3" fill="#fbbf24" style="animation-delay:2.48s;animation-duration:3.14s"/><circle class="n" cx="212.8" cy="438.9" r="3" fill="#fbbf24" style="animation-delay:1.72s;animation-duration:3.70s"/><circle class="n" cx="408.9" cy="330.0" r="3" fill="#f472b6" style="animation-delay:1.71s;animation-duration:3.54s"/><circle class="n" cx="460.2" cy="389.6" r="3" fill="#f472b6" style="animation-delay:2.21s;animation-duration:2.70s"/><circle class="n" cx="554.4" cy="330.0" r="3" fill="#f472b6" style="animation-delay:2.51s;animation-duration:3.92s"/><text x="650.0" y="418.4" text-anchor="start" font-size="12.5" font-weight="700" fill="#38bdf8">Cloud</text><text x="564.8" y="646.6" text-anchor="start" font-size="12.5" font-weight="700" fill="#60a5fa">Microsoft Infra</text><text x="339.0" y="643.5" text-anchor="start" font-size="12.5" font-weight="700" fill="#a78bfa">AI · GPU</text><text x="226.9" y="568.3" text-anchor="start" font-size="12.5" font-weight="700" fill="#34d399">Platform · Virt</text><text x="221.0" y="370.6" text-anchor="start" font-size="12.5" font-weight="700" fill="#fbbf24">Ops · Networking</text><text x="430.5" y="319.0" text-anchor="start" font-size="12.5" font-weight="700" fill="#f472b6">Home Automation</text><text x="677.7" y="495.4" font-size="11.5" font-weight="400" fill="#c7d2e0">AWS</text><text x="586.9" y="509.3" font-size="11.5" font-weight="400" fill="#c7d2e0">Microsoft Azure</text><text x="707.2" y="354.7" font-size="11.5" font-weight="400" fill="#c7d2e0">Oracle Cloud</text><text x="760.2" y="427.3" font-size="11.5" font-weight="400" fill="#c7d2e0">Huawei Cloud</text><text x="619.1" y="397.5" font-size="11.5" font-weight="400" fill="#c7d2e0">Huawei HCS</text><text x="575.5" y="625.1" font-size="11.5" font-weight="400" fill="#c7d2e0">Windows Server</text><text x="659.1" y="580.7" font-size="11.5" font-weight="400" fill="#c7d2e0">Active Directory</text><text x="570.2" y="687.6" font-size="11.5" font-weight="400" fill="#c7d2e0">Exchange Server</text><text x="613.7" y="608.4" font-size="11.5" font-weight="400" fill="#c7d2e0">Exchange Online</text><text x="516.7" y="593.3" font-size="11.5" font-weight="400" fill="#c7d2e0">Failover Cluster</text><text x="367.9" y="549.3" font-size="11.5" font-weight="400" fill="#c7d2e0">NVIDIA</text><text x="373.6" y="629.5" font-size="11.5" font-weight="400" fill="#c7d2e0">AMD ROCm</text><text x="305.2" y="608.5" font-size="11.5" font-weight="400" fill="#c7d2e0">vLLM</text><text x="235.3" y="687.6" font-size="11.5" font-weight="400" fill="#c7d2e0">Ollama</text><text x="358.1" y="687.6" font-size="11.5" font-weight="400" fill="#c7d2e0">LiteLLM</text><text x="203.3" y="527.2" font-size="11.5" font-weight="400" fill="#c7d2e0">Kubernetes</text><text x="171.9" y="618.1" font-size="11.5" font-weight="400" fill="#c7d2e0">Docker</text><text x="327.3" y="520.9" font-size="11.5" font-weight="400" fill="#c7d2e0">Proxmox</text><text x="278.1" y="535.1" font-size="11.5" font-weight="400" fill="#c7d2e0">Veeam</text><text x="286.5" y="403.0" font-size="11.5" font-weight="400" fill="#c7d2e0">Tailscale</text><text x="189.3" y="452.4" font-size="11.5" font-weight="400" fill="#c7d2e0">Prometheus</text><text x="286.2" y="455.1" font-size="11.5" font-weight="400" fill="#c7d2e0">Grafana</text><text x="154.7" y="437.8" font-size="11.5" font-weight="400" fill="#c7d2e0">Traefik</text><text x="307.8" y="333.6" font-size="11.5" font-weight="400" fill="#c7d2e0">Home Assistant</text><text x="469.2" y="393.2" font-size="11.5" font-weight="400" fill="#c7d2e0">Zigbee</text><text x="563.4" y="333.6" font-size="11.5" font-weight="400" fill="#c7d2e0">3D Printing</text></g>
</svg>